#tb 0: 1/15
#media_type 0: video
#codec_id 0: rawvideo
#dimensions 0: 320x200
#sar 0: 0/1
0,          0,          0,        1,   192000, 0xdfc2f225
0,          1,          1,        1,   192000, 0x059b57bd
0,          2,          2,        1,   192000, 0x766cb086
0,          3,          3,        1,   192000, 0x459e3bac
0,          4,          4,        1,   192000, 0x5293e622
0,          5,          5,        1,   192000, 0x898b03f4
0,          6,          6,        1,   192000, 0xb184a627
0,          7,          7,        1,   192000, 0xa3fc650a
0,          8,          8,        1,   192000, 0xea448589
0,          9,          9,        1,   192000, 0x700e2b76
0,         10,         10,        1,   192000, 0xa1a1d66d
0,         11,         11,        1,   192000, 0xd63bc8a1
0,         12,         12,        1,   192000, 0x5f08c023
0,         13,         13,        1,   192000, 0x8b75ec3b
0,         14,         14,        1,   192000, 0x62728ce4
0,         15,         15,        1,   192000, 0xaa007941
0,         16,         16,        1,   192000, 0x55dc5b3b
0,         17,         17,        1,   192000, 0x72d836c2
0,         18,         18,        1,   192000, 0x1f2de2fc
0,         19,         19,        1,   192000, 0xb295dfdb
0,         20,         20,        1,   192000, 0xe5c5f634
0,         21,         21,        1,   192000, 0x455a0464
0,         22,         22,        1,   192000, 0x3bf2340d
0,         23,         23,        1,   192000, 0xe368f0fc
0,         24,         24,        1,   192000, 0xfa7549c0
0,         25,         25,        1,   192000, 0x4dd76f3d
0,         26,         26,        1,   192000, 0x50a49f6c
0,         27,         27,        1,   192000, 0xb6072f65
0,         28,         28,        1,   192000, 0x093ce1a8
0,         29,         29,        1,   192000, 0x55afe3db
0,         30,         30,        1,   192000, 0x81c3bfab
0,         31,         31,        1,   192000, 0x583ebd3d
0,         32,         32,        1,   192000, 0x2504f003
0,         33,         33,        1,   192000, 0x44ade2af
0,         34,         34,        1,   192000, 0x77cbcfd8
0,         35,         35,        1,   192000, 0xac7ddfa1
0,         36,         36,        1,   192000, 0x79f7cfe8
0,         37,         37,        1,   192000, 0xdf2898fd
